<svg version="1" xmlns="http://www.w3.org/2000/svg" width="1600" height="1600" viewBox="0 0 1200.000000 1200.000000"><path d="M0 600v600h1199V0H0v600zm857-437.7c20.1 11.6 50.2 29 67 38.7 16.8 9.7 38.3 22.1 47.8 27.5l17.2 10v133.3l-8.7 5c-9.5 5.4-8.6 4.9-105.1 60.6L810 475.1l-32.8-18.9c-18-10.4-59-34.1-91.2-52.7s-65-37.6-72.9-42.1l-14.5-8.3-3 1.8c-1.7 1-12.1 7-23.1 13.3-31.5 18.1-149.3 86-167.4 96.6-9.1 5.2-17 9.5-17.5 9.5-.6 0-11.9-6.2-25.1-13.8-44.5-25.5-101.9-58.7-109-62.9-3.8-2.3-14.1-8.2-22.7-13.1-8.7-5-15.8-9.2-15.8-9.5.1-.3 28.2-16.7 62.7-36.5C387.4 275.4 477.1 223.7 498 211.6c49.5-28.8 100-57.6 100.9-57.6.6 0 22.6 12.4 48.8 27.6 96.4 55.7 133.2 77 149.7 86.6 9.4 5.4 17.4 9.8 17.8 9.8.4 0 .8-31.3.8-69.5v-69.6l2.3 1.2c1.2.7 18.6 10.7 38.7 22.2zm-632.8 232c7.9 4.6 46.6 27 86.1 49.7l71.7 41.4v122.1l.1 122 12.2 6.9c11 6.3 82.4 47.5 123.2 71.1 8.8 5.1 29.3 16.9 45.5 26.3l29.5 17 .3 100.1.2 100-14.7-8.5c-8.2-4.8-34.1-19.8-57.8-33.4-23.6-13.7-64.4-37.2-90.5-52.3l-47.5-27.5-.5 69.9-.5 69.9-16-9.3c-21.3-12.4-86.5-50-125.2-72.3l-31.2-17.9-.1-291.8c0-160.4.2-291.7.5-291.7.2 0 6.9 3.7 14.7 8.3zM989 607.5V829l-4.2 2.6c-2.4 1.4-13.5 7.8-24.8 14.3-46.3 26.7-69.2 39.8-81 46.7-6.9 4-34.5 19.9-61.5 35.4-26.9 15.5-53 30.6-58 33.4-4.9 2.9-19.6 11.4-32.5 18.8-12.9 7.5-45.4 26.2-72.3 41.7-26.8 15.4-48.9 28.1-49.2 28.1-.3 0-.4-44.9-.3-99.7l.3-99.7 46.5-26.8c25.6-14.7 72.9-42 105.2-60.5l58.7-33.8.3-122.3.3-122.3 78-45.1c42.9-24.7 81.4-47 85.5-49.3 4.1-2.4 7.8-4.4 8.3-4.4.4-.1.7 99.6.7 221.4zM655.2 501c29.9 17.2 54.4 31.4 54.6 31.5.2.2-7.9 5-18 10.8-10.1 5.8-35.1 20.2-55.6 32.1L598.8 597l-49.6-28.6c-66.6-38.4-61.7-35.4-59.5-36.9 1-.7 9.7-5.7 19.3-11.3 9.6-5.5 33.5-19.3 53-30.6 20-11.6 36.3-20.4 37.2-20.2 1 .2 26.2 14.5 56 31.6zM564 590.5c11.3 6.5 22.4 13 24.8 14.3l4.2 2.4v64c0 55.2-.2 63.9-1.4 63.5-.8-.3-8.4-4.6-16.8-9.5s-32.7-18.9-54-31.2L482 671.7V543.2l30.8 17.7c16.9 9.8 39.9 23.1 51.2 29.6zm152 16.8v64.2L661.4 703c-30 17.3-55 31.7-55.5 31.8-.5.2-.8-25.4-.7-63.8l.3-64.3 55-31.8c30.3-17.5 55.1-31.8 55.3-31.9.1 0 .2 28.9.2 64.3z"/></svg>