<?xml version="1.0" encoding="utf-8"?>
<svg version="1.1" id="Layer_1" xmlns="http://www.w3.org/2000/svg" xmlns:xlink="http://www.w3.org/1999/xlink" x="0px" y="0px"
	 viewBox="0 0 27.1 30" style="enable-background:new 0 0 27.1 30;" xml:space="preserve">
  <style type="text/css">
    .st0{fill:#fff;}
  </style>
  <path class="st0" d="M23.8,0c1.7,0,3.2,1.4,3.3,3.1V30l-3.3-2.8l-1.8-1.7l-2-1.7l0.8,2.8H3.2c-1.7,0-3.1-1.3-3.2-3c0,0,0,0,0-0.1V3.1
    C0,1.4,1.5,0,3.2,0H23.8L23.8,0z M16.2,7.1L16.2,7.1l-0.3,0.2c1.4,0.4,2.7,1,3.8,1.9c-1.5-0.8-3-1.2-4.7-1.4c-1-0.1-2.1-0.1-3.1,0
    h-0.2C10.5,8,9.3,8.3,8.2,8.8C7.6,9,7.3,9.2,7.3,9.2c1.2-1,2.5-1.6,4-1.9l-0.2-0.2C9.5,7.2,8,7.7,6.8,8.7c-1.4,2.7-2.2,5.7-2.3,8.8
    c1.1,1.5,2.8,2.3,4.7,2.3c0,0,0.5-0.7,1-1.3c-1.1-0.3-2-0.9-2.7-1.8c0.1,0.1,0.3,0.2,0.4,0.2H8c0,0,0.1,0,0.1,0v0c0,0,0,0,0.1,0
    c0.4,0.2,0.8,0.3,1.2,0.5c0.7,0.3,1.5,0.5,2.2,0.7c1.3,0.2,2.7,0.2,4,0c0.8-0.1,1.5-0.4,2.2-0.7c0.6-0.3,1.2-0.6,1.7-0.9
    c-0.7,0.9-1.7,1.5-2.8,1.8c0.4,0.6,1,1.2,1,1.2c1.8,0,3.6-0.8,4.8-2.2c-0.1-3.1-0.8-6.1-2.3-8.8C19.2,7.7,17.7,7.2,16.2,7.1
    L16.2,7.1L16.2,7.1z M16.4,12.6c0.9,0,1.7,0.7,1.8,1.6c0,0.9-0.7,1.7-1.6,1.8s-1.7-0.7-1.8-1.6c0,0,0,0,0-0.1
    C14.8,13.4,15.5,12.6,16.4,12.6C16.4,12.6,16.4,12.6,16.4,12.6L16.4,12.6z M10.8,12.6C10.8,12.6,10.8,12.6,10.8,12.6
    c0.9,0,1.6,0.8,1.6,1.7c0,0,0,0,0,0.1c0,0.9-0.8,1.6-1.8,1.6S9,15.1,9,14.2C9.1,13.3,9.9,12.6,10.8,12.6L10.8,12.6z"/>
</svg>
