<svg xmlns="http://www.w3.org/2000/svg" width="30.758" height="30" viewBox="0 0 30.758 30">
  <defs>
    <style>
      .a {
        fill: #1ca7dc;
      }
    </style>
  </defs>
  <path class="a"
    d="M15.379,0a15.38,15.38,0,0,0-4.861,29.972c.769.141,1.049-.334,1.049-.74,0-.366-.014-1.579-.022-2.863-4.277.929-5.181-1.814-5.181-1.814a4.078,4.078,0,0,0-1.707-2.249c-1.4-.954.106-.935.106-.935a3.228,3.228,0,0,1,2.357,1.584A3.273,3.273,0,0,0,11.6,24.233a3.288,3.288,0,0,1,.976-2.054c-3.414-.389-7.005-1.708-7.005-7.6A5.954,5.954,0,0,1,7.149,10.45,5.54,5.54,0,0,1,7.3,6.378s1.29-.413,4.23,1.577a14.559,14.559,0,0,1,7.7,0c2.934-1.992,4.226-1.577,4.226-1.577a5.517,5.517,0,0,1,.154,4.07,5.937,5.937,0,0,1,1.581,4.127c0,5.908-3.6,7.209-7.023,7.59a3.664,3.664,0,0,1,1.044,2.846c0,2.056-.021,3.713-.021,4.22,0,.409.28.888,1.059.738A15.382,15.382,0,0,0,15.379,0Z" />
</svg>
