<svg xmlns="http://www.w3.org/2000/svg" width="30" height="30" viewBox="0 0 30 30"><defs><style>.a{fill:#fff;}</style></defs><path class="a" d="M2,4V30a2.006,2.006,0,0,0,2,2H30a2.006,2.006,0,0,0,2-2V4a2.006,2.006,0,0,0-2-2H4A2.006,2.006,0,0,0,2,4Zm8.55,23H7V13.2h3.55ZM8.8,10.45a1.7,1.7,0,1,1,0-3.4,1.741,1.741,0,0,1,1.8,1.7A1.807,1.807,0,0,1,8.8,10.45ZM27,27H23.45V20.1a11.6,11.6,0,0,0-.2-2.85,2.13,2.13,0,0,0-.7-1,1.993,1.993,0,0,0-1.2-.35,2.543,2.543,0,0,0-1.6.5,2.68,2.68,0,0,0-1,1.35,11.162,11.162,0,0,0-.25,3.1V27H14.2V13.2h3.55v2.05a5.726,5.726,0,0,1,6.85-1.9,4.109,4.109,0,0,1,1.55,1.1,3.383,3.383,0,0,1,.7,1.55,10.4,10.4,0,0,1,.2,2.45V27Z" transform="translate(-2 -2)"/></svg>