<svg xmlns="http://www.w3.org/2000/svg" width="34.145" height="30" viewBox="0 0 34.145 30"><defs><style>.a{fill:#fff;}</style></defs><path class="a" d="M37.8,21.653A3.929,3.929,0,0,0,31.271,18.7a19.606,19.606,0,0,0-9.9-2.826l2.342-8.012,5.751,1.069c0,.047-.009.091-.007.139a2.5,2.5,0,1,0,.319-1.337h0l-6.93-1.288-2.76,9.428a19.65,19.65,0,0,0-9.931,2.806,3.928,3.928,0,1,0-4.693,6.274,7,7,0,0,0-.107,1.2c0,5.677,6.882,10.3,15.341,10.3s15.341-4.619,15.341-10.3a6.987,6.987,0,0,0-.1-1.162A3.933,3.933,0,0,0,37.8,21.653ZM13.4,24.33a2.417,2.417,0,1,1,2.418,2.417A2.417,2.417,0,0,1,13.4,24.33Zm12.989,6.537c-.072.075-1.806,1.84-5.726,1.84-3.94,0-5.516-1.789-5.58-1.865a.618.618,0,0,1,.935-.808c.035.039,1.351,1.437,4.645,1.437,3.352,0,4.822-1.448,4.837-1.462a.618.618,0,0,1,.889.858Zm-.481-4.12a2.417,2.417,0,1,1,2.416-2.417A2.417,2.417,0,0,1,25.912,26.747Z" transform="translate(-3.652 -6.444)"/></svg>