<svg xmlns="http://www.w3.org/2000/svg" width="36.867" height="30" viewBox="0 0 36.867 30"><defs><style>.a{fill:#fff;}</style></defs><path class="a" d="M56.967,67.555a15.292,15.292,0,0,1-4.344,1.2,7.59,7.59,0,0,0,3.328-4.187,15.03,15.03,0,0,1-4.8,1.836A7.562,7.562,0,0,0,38.061,71.57a7.4,7.4,0,0,0,.2,1.727,21.435,21.435,0,0,1-15.594-7.914,7.585,7.585,0,0,0,2.344,10.109,7.382,7.382,0,0,1-3.43-.945v.094a7.57,7.57,0,0,0,6.07,7.422,7.614,7.614,0,0,1-1.992.266,7.136,7.136,0,0,1-1.422-.141,7.576,7.576,0,0,0,7.07,5.258,15.165,15.165,0,0,1-9.4,3.242,15.332,15.332,0,0,1-1.8-.109A21.188,21.188,0,0,0,31.686,94c13.922,0,21.531-11.539,21.531-21.547,0-.328-.008-.656-.023-.977A15.525,15.525,0,0,0,56.967,67.555Z" transform="translate(-20.1 -64)"/></svg>