<svg xmlns="http://www.w3.org/2000/svg" xmlns:xlink="http://www.w3.org/1999/xlink" width="1920" height="1080" viewBox="0 0 1920 1080"><defs><style>.a{fill:#fff;stroke:#707070;opacity:0;}.b{clip-path:url(#a);}.c{fill:#54d6ff;}.d{fill:#60e0ff;}.e{fill:#71f1ff;}</style><clipPath id="a"><rect class="a" width="1920" height="1080"/></clipPath></defs><g class="b"><path class="c" d="M2558.435,781.37h0l-15.931-2.753-10.348,12.42h0l5.581,15.171,15.931,2.753,10.348-12.42-5.58-15.173Zm-18.19,11.066,7.841,1.355,5.519-6.625-5.519,6.625Z" transform="translate(-709.135 -21.459)"/><path class="c" d="M2643.014,440.251l-26.722-52-58.4-2.86,0,0h0l-31.675,49.142,26.722,52.006,58.4,2.86,31.676-49.144Zm-58.4-2.856-13.506-26.288,13.506,26.287,29.89,1.464Z" transform="translate(-711.222 -159.654)"/><path class="c" d="M2470.489,354.224h0l30.288-4.78,11.006-28.621L2492.5,296.983l-30.288,4.779h0L2451.2,330.382l19.283,23.842ZM2481.5,325.6l-5.5,14.31,5.5-14.31-9.3-11.5Z" transform="translate(-737.584 -190.722)"/><path class="c" d="M2496.323,968.948h0l-9.752-4.4-8.691,6.246h0l1.065,10.648,9.753,4.4,8.69-6.245-1.065-10.648Zm-8.689,6.246-4.274-1.93,4.274,1.93,4.219-3.032Z" transform="translate(-728.209 43.883)"/><g transform="translate(1823.016 757.159)"><path class="d" d="M2564.018,796.537l-10.352,12.42-15.934-2.743-5.582-15.177,10.352-12.42,15.934,2.757Z" transform="translate(-2532.151 -778.617)"/></g><g transform="translate(-1658.334 -348.291)"><g transform="translate(2903.815 817.936)"><path class="c" d="M2130.976,629.354l28.8-13.594,2.63-31.74h0l-26.175-18.148-28.8,13.594v0h0l-2.629,31.74Zm17.031-38.537-14.4,6.8-12.765-8.851,12.765,8.849Z" transform="translate(-2104.803 -565.87)"/><g transform="translate(0 0.001)"><path class="e" d="M2107.432,575.93l-2.629,31.741,26.174,18.147,2.629-31.739Z" transform="translate(-2104.803 -562.335)"/><path class="c" d="M2155.6,579.3l-2.629,31.741-28.8,13.594L2126.8,592.9Z" transform="translate(-2097.997 -561.151)"/><path class="d" d="M2161.725,584.02l-28.8,13.594-26.174-18.147v0l28.8-13.594,26.174,18.147Z" transform="translate(-2104.12 -565.871)"/></g></g><g transform="translate(1850.082 502.194)"><g transform="translate(0.006 0)"><path class="c" d="M1614.443,667.763l-36.732,39.476-52.558-12.069-15.811-51.557,36.732-39.475,52.557,12.082Z" transform="translate(-1509.342 -604.137)"/></g><g transform="translate(0 0.001)"><path class="e" d="M1509.338,633.35l15.819,51.552,52.554,12.076-15.818-51.548Z" transform="translate(-1509.337 -593.872)"/><path class="c" d="M1584.961,613.075l15.819,51.551L1564.044,704.1l-15.818-51.548Z" transform="translate(-1495.67 -600.997)"/><path class="d" d="M1598.628,616.218l-36.735,39.475-52.554-12.076v0l36.735-39.475,52.555,12.076Z" transform="translate(-1509.338 -604.138)"/></g></g><g transform="translate(1692.992 682.236)"><path class="c" d="M1452.209,809.59l22-34.128h0l-18.558-36.114L1415.1,737.36h0l-22,34.128,18.557,36.114Zm-18.558-36.113,20.277.993-20.278-.992-9.131-17.777Z" transform="translate(-1393.098 -737.36)"/><g transform="translate(0 0)"><path class="e" d="M1415.1,737.361l-22,34.128,18.557,36.114,22-34.126Z" transform="translate(-1393.098 -737.36)"/><path class="c" d="M1469.381,766.07l-22,34.128-40.554-1.986,22-34.126Z" transform="translate(-1388.273 -727.968)"/><path class="d" d="M1468.486,775.463l-40.554-1.986-18.557-36.114v0l40.554,1.986,18.557,36.114Z" transform="translate(-1387.378 -737.36)"/></g></g><g transform="translate(1818.585 693.988)"><path class="c" d="M1486.032,757.676l6.707,7.337,9.709-2.139,3-9.478-6.707-7.338h0l-9.71,2.139-3,9.479Zm11.21-6.879-1.5,4.74-5.006,1.1,5.006-1.1Z" transform="translate(-1486.031 -746.056)"/><g transform="translate(0 0.001)"><path class="e" d="M1496.217,746.057l6.707,7.339-3,9.478-6.707-7.338Z" transform="translate(-1483.506 -746.057)"/><path class="c" d="M1486.031,755.209l6.707,7.339,9.709-2.139-6.707-7.338Z" transform="translate(-1486.031 -743.592)"/><path class="d" d="M1486.031,757.675l9.709-2.139,3-9.478h0l-9.709,2.139-3,9.478Z" transform="translate(-1486.031 -746.057)"/></g></g><g transform="translate(1760.17 571.575)"><path class="c" d="M1456.2,695.227h0l21.034-3.319,7.643-19.876-13.392-16.556-21.032,3.319h0l-7.643,19.875,13.39,16.557Zm7.644-19.876-3.673,9.552,3.673-9.552-6.073-7.507Z" transform="translate(-1442.806 -655.476)"/><g transform="translate(0 0.001)"><path class="e" d="M1448.462,658.8l21.034-3.319,13.391,16.556-21.032,3.319Z" transform="translate(-1440.819 -655.477)"/><path class="c" d="M1452.716,690.922l21.034-3.319,7.643-19.875-21.032,3.319Z" transform="translate(-1439.324 -651.171)"/><path class="d" d="M1456.2,694.364l7.642-19.875-13.391-16.556h0l-7.643,19.875,13.391,16.556Z" transform="translate(-1442.806 -654.614)"/></g></g><g transform="translate(1893.721 687.054)"><path class="c" d="M1561.572,740.925h0l-19.942,14.1,2.241,24.319h0l22.182,10.218,19.941-14.1-2.241-24.32-22.181-10.22Zm2.241,24.32-9.971,7.05,9.971-7.05-1.12-12.16Z" transform="translate(-1541.629 -740.925)"/><g transform="translate(0 0)"><path class="e" d="M1556.385,740.925l22.182,10.219,2.241,24.32-22.181-10.219Z" transform="translate(-1536.443 -740.925)"/><path class="c" d="M1543.288,773.021l22.182,10.219,19.941-14.1-22.181-10.219Z" transform="translate(-1541.046 -734.6)"/><path class="d" d="M1543.871,779.346l19.941-14.1-2.241-24.32h0l-19.942,14.1,2.241,24.32Z" transform="translate(-1541.629 -740.925)"/></g></g><g transform="translate(3473.328 574.024)"><path class="e" d="M2557.892,385.388l-31.677,49.145,26.723,52,31.674-49.141Z" transform="translate(-2526.215 -385.386)"/><path class="c" d="M2636.064,426.728l-31.677,49.145-58.4-2.86,31.674-49.141Z" transform="translate(-2519.267 -371.861)"/><path class="d" d="M2634.775,440.255l-58.4-2.86-26.722-52.005,0,0,58.4,2.86,26.722,52.005Z" transform="translate(-2517.979 -385.386)"/></g><g transform="translate(3371.954 454.552)"><path class="e" d="M2459.348,301.762l30.289-4.779,19.283,23.841-30.287,4.779Z" transform="translate(-2448.342 -296.982)"/><path class="c" d="M2465.474,348.024l30.289-4.779,11.005-28.621-30.287,4.779Z" transform="translate(-2446.189 -290.783)"/><path class="d" d="M2470.49,352.981,2481.5,324.36l-19.283-23.841h0L2451.2,329.14l19.284,23.841Z" transform="translate(-2451.204 -295.74)"/></g><g transform="translate(3481.354 1105.45)"><path class="e" d="M2554.291,780.654l5.582,15.172-10.349,12.42-5.581-15.171Z" transform="translate(-2528.012 -777.901)"/><path class="c" d="M2532.155,787.808l5.582,15.172,15.93,2.752-5.581-15.171Z" transform="translate(-2532.155 -775.387)"/><path class="d" d="M2532.155,791.038l15.93,2.752,10.349-12.42h0l-15.93-2.753-10.349,12.42Z" transform="translate(-2532.155 -778.617)"/></g><g transform="translate(3461.605 889.883)"><path class="c" d="M2541.276,619.113h0l-23.73,25.215,9.971,33.159h0l33.7,7.944,23.73-25.215-9.971-33.159Zm-1.893,45.765,11.864-12.608-4.986-16.579,4.987,16.579Z" transform="translate(-2517.541 -619.106)"/><path class="d" d="M2584.951,660.218l-23.731,25.217-33.705-7.946-9.974-33.164,23.731-25.2v-.014l33.7,7.947Z" transform="translate(-2517.542 -619.107)"/><g transform="translate(0.003 0.007)"><path class="e" d="M2535.1,619.112l33.7,7.943,9.972,33.158-33.7-7.943Z" transform="translate(-2511.373 -619.112)"/><path class="c" d="M2524.923,668.863l33.7,7.943,23.73-25.215-33.7-7.943Z" transform="translate(-2514.951 -610.489)"/><path class="d" d="M2527.518,677.486l23.73-25.215-9.972-33.158h0l-23.73,25.215,9.972,33.158Z" transform="translate(-2517.544 -619.112)"/></g></g><g transform="translate(3408.006 1356.72)"><path class="e" d="M2477.881,969.167l1.064,10.648,9.753,4.4-1.064-10.647Z" transform="translate(-2477.881 -962.921)"/><path class="c" d="M2493.787,967.8l1.064,10.648-8.689,6.246-1.064-10.647Z" transform="translate(-2475.344 -963.4)"/><path class="d" d="M2496.323,968.948l-8.689,6.246-9.753-4.4h0l8.689-6.246,9.753,4.4Z" transform="translate(-2477.881 -964.545)"/></g></g><g transform="translate(177.424 156.333)"><path class="c" d="M1499.367,615.92l5.764,2.6,5.134-3.689-.628-6.292h0l-5.764-2.6-5.134,3.691h0Zm5.134-3.691,3.081-2.215-3.081,2.215-2.881-1.3Z" transform="translate(-1498.738 -605.936)"/><g transform="translate(0 0.001)"><path class="e" d="M1498.739,608.667l.629,6.292,5.764,2.6-.629-6.292Z" transform="translate(-1498.739 -604.977)"/><path class="c" d="M1508.138,607.862l.629,6.292-5.135,3.691-.629-6.292Z" transform="translate(-1497.24 -605.26)"/><path class="d" d="M1509.637,608.539l-5.135,3.691-5.764-2.6h0l5.135-3.691,5.763,2.6Z" transform="translate(-1498.739 -605.937)"/></g></g><g transform="translate(1287.698 499.528)"><g transform="translate(0 0.007)"><path class="c" d="M2635.307,965.565l-218,162-249.286-107.79-31.272-269.544-.027-.244,217.986-162,249.3,107.777v.026Z" transform="translate(-2135.802 -587.988)"/><path class="c" d="M2136.988,708.143l-.946-.405.919.162Z" transform="translate(-2136.042 -545.903)"/></g><g transform="translate(0.005)"><path class="e" d="M2136.719,707.861l31.3,269.787,249.292,107.787-31.3-269.768Z" transform="translate(-2135.809 -545.853)"/><path class="c" d="M2539.176,667.747l31.3,269.787-217.993,162-31.3-269.769Z" transform="translate(-2070.981 -559.95)"/><path class="d" d="M2604.242,695.788,2386.25,857.8l-250.2-107.977.91.161,217.993-162L2604.24,695.77Z" transform="translate(-2136.045 -587.982)"/></g></g></g></svg>