<svg xmlns="http://www.w3.org/2000/svg" xmlns:xlink="http://www.w3.org/1999/xlink" width="1920" height="1080" viewBox="0 0 1920 1080"><defs><style>.a{fill:#fff;}.b{clip-path:url(#a);}.c{fill:#54d6ff;}.d{opacity:0.36;mix-blend-mode:multiply;isolation:isolate;}.e,.f,.i,.j{fill:none;stroke-miterlimit:10;}.e{stroke:#1b192f;}.e,.f{stroke-width:5px;}.f{stroke:#707070;}.g{fill:#60e0ff;}.h{fill:#71f1ff;}.i{stroke:#651ecc;}.i,.j{stroke-width:3px;}.j{stroke:#54d6ff;}</style><clipPath id="a"><rect class="a" width="1920" height="1080"/></clipPath></defs><g class="b"><g transform="translate(-1658.334 -348.291)"><path class="c" d="M1583.079,1131.807l-.011.011h0l-140.1,148.959,58.951,195.822,199.063,46.857L1841.083,1374.5h0l.01-.011-58.953-195.822Zm58.938,195.838-29.086-96.635,29.089,96.629,98.212,23.118Z" transform="translate(566.418 450.957)"/><path class="c" d="M1984.118,1253.442l0,0-50.044,1.734-23.521,44.208h0l26.525,42.473,50.045-1.735,23.52-44.207-26.523-42.472Zm-23.521,44.21-25.023.865,25.022-.866,11.762-22.1Z" transform="translate(730.745 493.702)"/><path class="c" d="M1934.526,776.82l-107.212-2.761h-.007l-56,91.472,51.217,94.23h0l107.216,2.761,56-91.472Zm-83.682,136.7,27.688-45.228-25.318-46.579,25.322,46.579Z" transform="translate(681.81 325.231)"/><path class="c" d="M2303.485,1283.658l-.007-.005L2191.833,1335.3l-11.1,122.509.007,0h0l100.543,70.865,111.645-51.643,11.1-122.509-100.543-70.864Zm-11.1,122.51-55.251,25.553,55.248-25.556,5.491-60.623Z" transform="translate(825.697 504.321)"/><path class="c" d="M2264.87,1234.7l53.9-1.5,25.652-47.431-28.251-45.933-53.9,1.5h0l-25.653,47.43,28.25,45.933Zm25.654-47.433-12.542,23.189,12.541-23.189-13.93-22.649Z" transform="translate(845.336 453.778)"/><path class="c" d="M1574.287,1609.342v0l-52.555-12.075L1485,1636.739h0l6.842,22.3-11.111-2.081h0l-14.018,16.348,7.149,20.315,21.169,3.967,7.611-8.878,50.733,11.657,36.736-39.476-15.818-51.55Zm-86.412,67.933-3.339-9.491,3.339,9.49,9.749,1.827Zm49.676-28.455-26.432-6.075,26.432,6.073,18.04-19.385Z" transform="translate(574.763 614.535)"/><path class="c" d="M1386,1730.486h0l-22,34.128,18.558,36.113,40.554,1.987,22-34.126h0v0l-18.557-36.115Zm18.555,36.117-9.278-18.059,9.278,18.058,19.6.959Z" transform="translate(538.667 661.354)"/><path class="c" d="M1469.644,1739.182h0l-9.709,2.139-3,9.478h0l6.707,7.338,9.709-2.139,3-9.478-6.707-7.34Zm-7.389,10.445,4.387-.966,1.719-5.426-1.719,5.426Z" transform="translate(571.328 664.41)"/><path class="c" d="M1421.353,1651.921h0l-7.644,19.874,13.393,16.556h0l21.032-3.318,7.642-19.876-13.39-16.556Zm9.9,25.624,3.488-9.068-6.63-8.2,6.63,8.2Z" transform="translate(556.137 632.577)"/><path class="c" d="M1532.474,1734.051h0l-19.942,14.1,2.241,24.32h0l22.181,10.219,19.942-14.1-2.241-24.32ZM1525.2,1765.1l9.512-6.726-1.12-12.159,1.122,12.16Z" transform="translate(590.867 662.607)"/><path class="c" d="M1470.269,1609.045l5.764,2.6,5.134-3.691-.629-6.292h0l-5.764-2.6-5.134,3.691h0Zm5.135-3.691,2.441-1.754-2.441,1.754-1.962-.885Z" transform="translate(575.793 615.167)"/><path class="c" d="M1928.71,1039.548l.906,9.06,8.3,3.746,7.4-5.314-.906-9.061h0l-8.3-3.746-7.4,5.314Zm8.3,3.746,3.7-2.657-3.7,2.657-4.15-1.873Z" transform="translate(737.127 416.666)"/><path class="c" d="M705.012,1115.68l5.225-3.384h0l-.319-6.217-5.544-2.834-5.226,3.385.319,6.218h0Zm-.319-6.218,2.218,1.133-2.218-1.133-2.612,1.692Z" transform="translate(305.014 440.919)"/><path class="c" d="M525.02,1200.466l-2.755-5.865-6.456-.546-3.7,5.319,2.756,5.862h0l6.456.546,3.7-5.318Zm-6.456-.547-1.592,2.289,1.592-2.289,3.9.33Z" transform="translate(239.282 472.833)"/><path class="c" d="M1436.136,1241.729l-52.039-12.246-36.623,38.938,52.036,12.249Z" transform="translate(532.86 485.283)"/><path class="c" d="M1817.846,1857.3l52.036,12.249,36.626-38.941-52.039-12.246Z" transform="translate(698.165 692.237)"/><g class="d" transform="translate(-168.761 1256.082)"><line class="e" x1="2429.892" y2="1458.154" transform="translate(0 0)"/><line class="f" x1="2429.892" y2="1458.154" transform="translate(16.208 27.009)"/><line class="f" x1="2429.892" y2="1458.154" transform="translate(32.415 54.018)"/><line class="f" x1="2429.892" y2="1458.154" transform="translate(48.623 81.027)"/><line class="f" x1="2429.892" y2="1458.154" transform="translate(64.831 108.035)"/><line class="f" x1="2429.892" y2="1458.154" transform="translate(81.038 135.044)"/><line class="f" x1="2429.892" y2="1458.154" transform="translate(97.246 162.053)"/></g><g transform="translate(2553.945 352.072)"><path class="c" d="M1987.12,221.166v-.012l-.01,0h0l-.007-.006L1862.97,273.127l-17.055,133.489.007.005h0v0h.007l87.727,66.784,19.354,14.735,124.129-51.976,17.055-133.5-74.509-56.716Z" transform="translate(-1845.915 -221.152)"/><g transform="translate(0 0)"><g transform="translate(0.007 0.002)"><path class="g" d="M2094.192,302.672l-17.055,133.5-124.129,51.976-107.075-81.518h-.013l17.055-133.5,124.143-51.976v.014Z" transform="translate(-1845.92 -221.154)"/></g><path class="h" d="M1845.918,371.9,1953,453.417l124.132-51.974-107.07-81.509Z" transform="translate(-1845.914 -186.437)"/><path class="c" d="M1954.823,221.154,2061.9,302.668l-17.055,133.489-107.07-81.509Z" transform="translate(-1813.632 -221.151)"/><path class="g" d="M1987.109,221.158l-17.055,133.489-124.132,51.975-.007-.006,17.055-133.489L1987.1,221.152Z" transform="translate(-1845.915 -221.152)"/></g></g><g transform="translate(2009.382 1582.764)"><path class="h" d="M1583.074,1131.811l-140.11,148.965,58.952,195.821,140.1-148.955Z" transform="translate(-1442.964 -1131.806)"/><path class="c" d="M1825.758,1323.564l-140.11,148.965-199.062-46.857,140.1-148.955Z" transform="translate(-1427.633 -1080.881)"/><path class="g" d="M1804.65,1374.5l-199.062-46.857-58.952-195.822.01-.01,199.063,46.857,58.952,195.822Z" transform="translate(-1406.53 -1131.807)"/></g><g transform="translate(2641.295 1747.142)"><path class="h" d="M1971.1,1253.44l26.525,42.473-23.521,44.207-26.523-42.47Z" transform="translate(-1897.536 -1253.439)"/><path class="c" d="M1910.551,1287.885l26.524,42.473,50.045-1.734-26.523-42.47Z" transform="translate(-1910.55 -1241.942)"/><path class="g" d="M1910.552,1299.384l50.045-1.734,23.521-44.207,0,0-50.045,1.734-23.521,44.208Z" transform="translate(-1910.55 -1253.439)"/></g><g transform="translate(2453.12 1099.29)"><path class="h" d="M1812.748,774.059l107.216,2.76,51.217,94.231-107.208-2.76Z" transform="translate(-1756.746 -774.059)"/><path class="c" d="M1809.21,935.257l107.216,2.76,56-91.471-107.208-2.76Z" transform="translate(-1757.989 -749.555)"/><path class="g" d="M1822.534,959.762l56-91.471-51.217-94.231h-.007l-56,91.471,51.217,94.231Z" transform="translate(-1771.309 -774.059)"/></g><g transform="translate(3006.431 1787.973)"><path class="h" d="M2274.446,1283.655l100.546,70.867-11.1,122.509-100.54-70.862Z" transform="translate(-2151.698 -1283.652)"/><path class="c" d="M2180.736,1425.947l100.546,70.867,111.646-51.642-100.54-70.862Z" transform="translate(-2180.733 -1251.793)"/><path class="g" d="M2180.741,1457.809l111.646-51.642,11.1-122.509-.007-.005L2191.833,1335.3l-11.1,122.509Z" transform="translate(-2180.734 -1283.653)"/></g><g transform="translate(2822.981 1106.065)"><g transform="translate(0.003 0.007)"><path class="h" d="M2247.45,925.195l-84.37,68.18-101.223-38.962-16.866-107.155,84.357-68.18h.013l101.223,38.962Z" transform="translate(-2044.992 -779.078)"/></g><g transform="translate(0 0)"><path class="h" d="M2129.353,779.074l-84.364,68.184,16.867,107.153,84.358-68.179Z" transform="translate(-2044.989 -779.072)"/><path class="c" d="M2243.065,897.331,2158.7,965.515,2057.47,926.545l84.358-68.179Z" transform="translate(-2040.603 -751.206)"/><path class="g" d="M2225.51,925.2,2124.28,886.23l-16.867-107.153.006,0,101.231,38.969,16.867,107.153Z" transform="translate(-2023.051 -779.072)"/></g></g><g transform="translate(2011.699 1495.259)"><path class="h" d="M1470.99,1100.337l7.12-18.076-12.094-15.2-7.12,18.074Z" transform="translate(-1439.681 -1067.058)"/><path class="c" d="M1444.678,1088l7.12-18.076,19.214-2.872-7.12,18.074Z" transform="translate(-1444.678 -1067.058)"/><path class="g" d="M1444.679,1083.3l19.214-2.871,12.094,15.2h0l-19.214,2.872-12.094-15.2Z" transform="translate(-1444.678 -1062.357)"/></g><g transform="translate(3081.951 1593.614)"><path class="h" d="M2257.521,1222.754l53.9-1.5,25.652-47.431-53.9,1.5Z" transform="translate(-2229.269 -1127.891)"/><path class="c" d="M2255.6,1141.336l53.9-1.5,28.251,45.931-53.9,1.5Z" transform="translate(-2229.944 -1139.835)"/><path class="g" d="M2262.271,1140.945l28.25,45.931-25.652,47.431h0l-28.25-45.931,25.652-47.431Z" transform="translate(-2236.615 -1139.445)"/></g><g transform="translate(2059.758 2211.799)"><path class="h" d="M1480.24,1626.475l15.819,51.551,52.554,12.076-15.818-51.548Z" transform="translate(-1480.239 -1586.998)"/><path class="c" d="M1555.863,1606.2l15.819,51.551-36.735,39.475-15.818-51.548Z" transform="translate(-1466.573 -1594.123)"/><path class="g" d="M1569.531,1609.343l-36.736,39.475-52.554-12.076v0l36.735-39.475,52.555,12.076Z" transform="translate(-1480.24 -1597.264)"/></g><g transform="translate(1902.668 2391.839)"><path class="h" d="M1386,1730.486l-22,34.128,18.557,36.114,22-34.125Z" transform="translate(-1364.001 -1730.485)"/><path class="c" d="M1440.283,1759.195l-22,34.128-40.554-1.986,22-34.125Z" transform="translate(-1359.175 -1721.093)"/><path class="g" d="M1439.388,1768.588l-40.554-1.986-18.557-36.114v0l40.554,1.986,18.557,36.114Z" transform="translate(-1358.281 -1730.485)"/></g><g transform="translate(2028.261 2403.592)"><path class="h" d="M1467.12,1739.182l6.707,7.339-3,9.478-6.707-7.338Z" transform="translate(-1454.408 -1739.182)"/><path class="c" d="M1456.933,1748.335l6.707,7.339,9.709-2.14-6.707-7.338Z" transform="translate(-1456.933 -1736.717)"/><path class="g" d="M1456.934,1750.8l9.709-2.139,3-9.478h0l-9.709,2.14-3,9.478Z" transform="translate(-1456.933 -1739.182)"/></g><g transform="translate(1969.846 2281.179)"><path class="h" d="M1419.364,1651.921l21.034-3.319,13.391,16.556-21.032,3.319Z" transform="translate(-1411.721 -1648.602)"/><path class="c" d="M1423.618,1684.047l21.034-3.319,7.643-19.875-21.032,3.319Z" transform="translate(-1410.226 -1644.297)"/><path class="g" d="M1427.1,1687.489l7.642-19.875-13.391-16.557h0l-7.643,19.875,13.391,16.557Z" transform="translate(-1413.709 -1647.739)"/></g><g transform="translate(2103.398 2396.657)"><path class="h" d="M1527.287,1734.051l22.182,10.219,2.241,24.32-22.181-10.219Z" transform="translate(-1507.345 -1734.05)"/><path class="c" d="M1514.19,1766.147l22.182,10.219,19.941-14.1-22.181-10.218Z" transform="translate(-1511.948 -1727.726)"/><path class="g" d="M1514.774,1772.472l19.941-14.1-2.241-24.32h0l-19.941,14.1,2.241,24.32Z" transform="translate(-1512.531 -1734.05)"/></g><g transform="translate(2041.469 2271.491)"><path class="h" d="M1480.726,1641.434l-14.019,16.349,7.149,20.315,14.018-16.348Z" transform="translate(-1466.707 -1641.434)"/><path class="c" d="M1507.184,1660.433l-14.019,16.349L1472,1672.815l14.018-16.348Z" transform="translate(-1464.848 -1636.15)"/><path class="g" d="M1505.4,1665.717l-21.168-3.967-7.149-20.315h0l21.168,3.967,7.149,20.315Z" transform="translate(-1463.062 -1641.434)"/></g><g transform="translate(2045.434 2214.229)"><path class="h" d="M1469.641,1601.793l.629,6.292,5.764,2.6-.629-6.292Z" transform="translate(-1469.641 -1598.102)"/><path class="c" d="M1479.04,1600.987l.629,6.292-5.135,3.691-.629-6.292Z" transform="translate(-1468.142 -1598.385)"/><path class="g" d="M1480.539,1601.664l-5.135,3.691-5.764-2.6h0l5.135-3.691,5.764,2.6Z" transform="translate(-1469.641 -1599.062)"/></g><g transform="translate(1777.093 2171.45)"><path class="h" d="M1271.081,1657.835l20.474-72.105,72.682-18.322-20.472,72.1Z" transform="translate(-1271.081 -1567.408)"/><path class="c" d="M1377.07,1693.3l20.474-72.105-52.208-53.784-20.472,72.1Z" transform="translate(-1252.18 -1567.408)"/><path class="g" d="M1395.972,1674.544l-52.208-53.784-72.682,18.322,0,.005,52.208,53.784,72.682-18.322Z" transform="translate(-1271.081 -1548.658)"/></g><g transform="translate(2665.837 1450.898)"><path class="h" d="M1928.71,1038.166l.906,9.061,8.3,3.746-.905-9.06Z" transform="translate(-1928.71 -1032.851)"/><path class="c" d="M1942.246,1037.005l.906,9.061-7.394,5.315-.905-9.06Z" transform="translate(-1926.552 -1033.259)"/><path class="g" d="M1944.4,1037.98l-7.394,5.315-8.3-3.746h0l7.394-5.315,8.3,3.746Z" transform="translate(-1928.71 -1034.233)"/></g><g transform="translate(3266.539 822.717)"><g transform="translate(0 0)"><path class="h" d="M2492.844,663.129l-54.1,37.84-59.828-27.947-5.716-65.774,54.111-37.827v-.013l59.828,27.947Z" transform="translate(-2373.202 -569.408)"/></g><g transform="translate(0.006 0.006)"><path class="h" d="M2427.311,569.413l-54.1,37.838,5.716,65.775,54.1-37.835Z" transform="translate(-2373.206 -569.412)"/><path class="c" d="M2491.361,646.02l-54.1,37.838-59.821-27.937,54.1-37.835Z" transform="translate(-2371.72 -552.307)"/><path class="g" d="M2478.776,663.126l-59.821-27.937-5.716-65.775,0,0,59.821,27.937,5.716,65.775Z" transform="translate(-2359.137 -569.412)"/></g></g><g transform="translate(3445.751 2758.864)"><path class="h" d="M2505.81,2017.39l24.68-15.323,25.61,13.711-24.677,15.322Z" transform="translate(-2505.809 -2002.066)"/><path class="c" d="M2525.691,2056.57l24.679-15.323-.931-29.034-24.677,15.322Z" transform="translate(-2499.149 -1998.501)"/><path class="g" d="M2532.352,2056.15l-.931-29.035-25.61-13.711h0l.93,29.034,25.61,13.711Z" transform="translate(-2505.81 -1998.082)"/></g><g transform="translate(3527.945 2710.248)"><path class="h" d="M2575.583,1970.709l-8.954,27.983,19.757,21.746,8.953-27.981Z" transform="translate(-2566.63 -1964.471)"/><path class="c" d="M2618.913,1982.185l-8.953,27.982-28.711,6.237,8.953-27.981Z" transform="translate(-2561.492 -1960.438)"/><path class="g" d="M2621.722,1987.841l-28.711,6.237-19.757-21.746v0l28.71-6.237,19.757,21.746Z" transform="translate(-2564.301 -1966.093)"/></g><g transform="translate(3495.858 2647.116)"><path class="h" d="M2542.887,1924.825l4.126,7.576,8.624.214-4.126-7.575Z" transform="translate(-2542.887 -1917.464)"/><path class="c" d="M2553.766,1919.537l4.126,7.576-4.5,7.361-4.126-7.575Z" transform="translate(-2540.645 -1919.323)"/><path class="g" d="M2556.009,1919.593l-4.5,7.361-8.624-.214h0l4.5-7.361,8.624.214Z" transform="translate(-2542.887 -1919.378)"/></g><g transform="translate(751.389 1666.888)"><path class="h" d="M524.057,1200.465,521.3,1194.6l-6.456-.547,2.755,5.864Z" transform="translate(-511.145 -1194.055)"/><path class="c" d="M514.863,1205.238l-2.755-5.865,3.7-5.318,2.755,5.864Z" transform="translate(-512.108 -1194.055)"/><path class="g" d="M514.146,1203.712l3.7-5.318,6.456.546h0l-3.7,5.318-6.456-.546Z" transform="translate(-511.391 -1192.53)"/></g><path class="i" d="M1682.37,880.205l-20.44-5.477-5.477,20.44-20.44-5.477-5.477,20.44-20.44-5.477-5.477,20.44-20.44-5.477-5.477,20.44-20.44-5.477-5.477,20.44-20.44-5.477-5.477,20.44-20.44-5.477-5.477,20.44-20.44-5.477-5.477,20.44-20.44-5.477-5.477,20.44-20.44-5.477-5.477,20.44-20.44-5.477-5.477,20.44-20.44-5.477" transform="translate(543.181 360.61)"/><path class="i" d="M1767.9,781.085l-20.44-5.477-5.477,20.44-20.44-5.477-5.477,20.44-20.44-5.477-5.477,20.44-20.44-5.477-5.477,20.44-20.44-5.477-5.477,20.44-20.44-5.477-5.477,20.44-20.44-5.477-5.477,20.44-20.44-5.477-5.477,20.44-20.44-5.477-5.477,20.44-20.44-5.477-5.477,20.44-20.44-5.477-5.477,20.44-20.44-5.477" transform="translate(573.238 325.776)"/><path class="i" d="M1625.287,1841.079l-20.44-5.477-5.477,20.44-20.441-5.477-5.477,20.44-20.44-5.477-5.477,20.44-20.44-5.477-5.477,20.44-20.44-5.477-5.477,20.44-20.44-5.477-5.477,20.44-20.44-5.477-5.477,20.44-20.44-5.477-5.477,20.44-20.44-5.477-5.477,20.44-20.44-5.477-5.477,20.44-20.44-5.477-5.477,20.44-20.441-5.477" transform="translate(523.12 698.296)"/><path class="j" d="M2362.112,281.787l-2.965-35.793-32.481-15.329-29.515,20.465,2.965,35.793,32.481,15.329Z" transform="translate(969.388 86.426)"/><path class="j" d="M2489.357,1340.321l81.386-17.507,25.532-79.236-55.854-61.729-81.386,17.507-25.532,79.236Z" transform="translate(914.53 468.543)"/><path class="j" d="M1599.849,1582.047l35.42-7.619,11.112-34.484-24.308-26.865-35.421,7.619-11.112,34.484Z" transform="translate(613.01 584.949)"/><path class="j" d="M109.22,1897.867l26.565-5.714,8.334-25.863-18.231-20.149-26.565,5.714-8.334,25.863Z" transform="translate(91.285 701.999)"/><path class="c" d="M1436.136,1241.729l-36.626,38.941-52.037-12.249,36.624-38.938Z" transform="translate(532.86 485.283)"/><path class="c" d="M1906.509,1830.608l-36.626,38.941-52.037-12.249,36.624-38.938Z" transform="translate(698.166 692.237)"/><g transform="translate(1831.789 561.887)"><path class="c" d="M1538.142,672.593l-14.014,16.352-21.177-3.973L1495.8,664.66l14.028-16.352,21.164,3.973Z" transform="translate(-1495.802 -648.307)"/><g transform="translate(0.004 0.001)"><path class="h" d="M1509.824,648.309,1495.8,664.658l7.149,20.315,14.018-16.348Z" transform="translate(-1495.805 -648.308)"/><path class="c" d="M1536.282,667.307l-14.019,16.349-21.168-3.967,14.018-16.348Z" transform="translate(-1493.946 -643.025)"/><path class="g" d="M1534.5,672.591l-21.168-3.966-7.149-20.316h0l21.168,3.966,7.149,20.315Z" transform="translate(-1492.159 -648.308)"/></g></g></g></g></svg>